<svg width="39" height="41" viewBox="0 0 39 41" fill="none" xmlns="http://www.w3.org/2000/svg">
<path d="M36.5625 11.45C36.5625 10.525 36.1969 9.62498 35.5631 8.97498C34.9294 8.32498 34.0519 7.94998 33.15 7.94998H5.85C4.94813 7.94998 4.07062 8.32498 3.43687 8.97498C2.80312 9.62498 2.4375 10.525 2.4375 11.45V30.025C2.4375 30.95 2.80312 31.85 3.43687 32.5C4.07062 33.15 4.94813 33.525 5.85 33.525H33.15C34.0519 33.525 34.9294 33.15 35.5631 32.5C36.1969 31.85 36.5625 30.95 36.5625 30.025V11.45Z" stroke="#232B2F" stroke-width="2" stroke-linecap="round" stroke-linejoin="round"/>
<path d="M36.5625 11.45C36.5625 10.525 36.1969 9.62498 35.5631 8.97498C34.9294 8.32498 34.0519 7.94998 33.15 7.94998H5.85C4.94813 7.94998 4.07062 8.32498 3.43687 8.97498C2.80312 9.62498 2.4375 10.525 2.4375 11.45V30.025C2.4375 30.95 2.80312 31.85 3.43687 32.5C4.07062 33.15 4.94813 33.525 5.85 33.525H33.15C34.0519 33.525 34.9294 33.15 35.5631 32.5C36.1969 31.85 36.5625 30.95 36.5625 30.025V11.45Z" stroke="#232B2F" stroke-width="2" stroke-linecap="round" stroke-linejoin="round"/>
<path d="M5.28949 11.325C5.28949 11.325 13.2845 20.85 17.282 24.35C18.5495 25.475 20.4507 25.475 21.7182 24.35C25.6914 20.85 33.6376 11.4 33.6376 11.4" stroke="#232B2F" stroke-width="2" stroke-linecap="round" stroke-linejoin="round"/>
<path d="M5.28949 30.625L15.8439 23.325" stroke="#232B2F" stroke-width="2" stroke-linecap="round" stroke-linejoin="round"/>
<path d="M23.1562 23.325L33.7106 30.625" stroke="#232B2F" stroke-width="2" stroke-linecap="round" stroke-linejoin="round"/>
</svg>
