<svg width="40" height="40" viewBox="0 0 40 40" fill="none" xmlns="http://www.w3.org/2000/svg">
<path d="M36.9893 10.7C36.9893 9.77498 36.6237 8.87498 35.9899 8.22498C35.3562 7.57498 34.4787 7.19998 33.5768 7.19998H6.27679C5.37491 7.19998 4.49741 7.57498 3.86366 8.22498C3.22991 8.87498 2.86429 9.77498 2.86429 10.7V29.275C2.86429 30.2 3.22991 31.1 3.86366 31.75C4.49741 32.4 5.37491 32.775 6.27679 32.775H33.5768C34.4787 32.775 35.3562 32.4 35.9899 31.75C36.6237 31.1 36.9893 30.2 36.9893 29.275V10.7Z" stroke="#232B2F" stroke-width="2" stroke-linecap="round" stroke-linejoin="round"/>
<path d="M36.9893 10.7C36.9893 9.77498 36.6237 8.87498 35.9899 8.22498C35.3562 7.57498 34.4787 7.19998 33.5768 7.19998H6.27679C5.37491 7.19998 4.49741 7.57498 3.86366 8.22498C3.22991 8.87498 2.86429 9.77498 2.86429 10.7V29.275C2.86429 30.2 3.22991 31.1 3.86366 31.75C4.49741 32.4 5.37491 32.775 6.27679 32.775H33.5768C34.4787 32.775 35.3562 32.4 35.9899 31.75C36.6237 31.1 36.9893 30.2 36.9893 29.275V10.7Z" stroke="#232B2F" stroke-width="2" stroke-linecap="round" stroke-linejoin="round"/>
<path d="M5.71628 10.575C5.71628 10.575 13.7113 20.1 17.7088 23.6C18.9763 24.725 20.8775 24.725 22.145 23.6C26.1182 20.1 34.0644 10.65 34.0644 10.65" stroke="#232B2F" stroke-width="2" stroke-linecap="round" stroke-linejoin="round"/>
<path d="M5.71628 29.875L16.2707 22.575" stroke="#232B2F" stroke-width="2" stroke-linecap="round" stroke-linejoin="round"/>
<path d="M23.583 22.575L34.1374 29.875" stroke="#232B2F" stroke-width="2" stroke-linecap="round" stroke-linejoin="round"/>
</svg>
