<svg width="25" height="40" viewBox="0 0 25 40" fill="none" xmlns="http://www.w3.org/2000/svg">
<path d="M9.14685 7.36C9.14685 7.06667 9.22685 6.8 9.36018 6.56L11.7335 2.21333C12.0268 1.65333 12.5869 1.33333 13.1735 1.33333C13.7602 1.33333 14.3202 1.68 14.6135 2.21333L16.9868 6.56C17.1202 6.8 17.2002 7.09333 17.2002 7.36V35.92H9.14685V7.36Z" stroke="#232B2F" stroke-width="2" stroke-linecap="round" stroke-linejoin="round"/>
<path d="M23.2536 27.6267C23.2536 26.2933 22.5869 25.04 21.4936 24.2933C19.7069 23.0933 17.2269 21.4133 17.2269 21.4133V35.9467C17.2269 35.9467 18.5603 36.8533 20.0003 37.8133C20.6403 38.24 21.4669 38.2933 22.1603 37.92C22.8536 37.5467 23.2803 36.8533 23.2803 36.08V27.6267H23.2536Z" stroke="#232B2F" stroke-width="2" stroke-linecap="round" stroke-linejoin="round"/>
<path d="M3.12011 27.6267C3.12011 26.2933 3.78678 25.04 4.88011 24.2933C6.66678 23.0933 9.14678 21.4133 9.14678 21.4133V35.9467C9.14678 35.9467 7.81345 36.8533 6.37344 37.8133C5.73344 38.24 4.90678 38.2933 4.21344 37.92C3.52011 37.5467 3.09344 36.8533 3.09344 36.08V27.6267H3.12011Z" stroke="#232B2F" stroke-width="2" stroke-linecap="round" stroke-linejoin="round"/>
<path d="M15.1203 35.92H11.2536V37.0133C11.2536 37.92 11.9736 38.64 12.8803 38.64H13.4669C14.3736 38.64 15.0936 37.92 15.0936 37.0133V35.92H15.1203Z" stroke="#232B2F" stroke-width="2" stroke-linecap="round" stroke-linejoin="round"/>
</svg>
