<svg width="24" height="41" viewBox="0 0 24 41" fill="none" xmlns="http://www.w3.org/2000/svg">
<path d="M8.72006 8.11C8.72006 7.81667 8.80006 7.55 8.9334 7.31L11.3067 2.96334C11.6001 2.40334 12.1601 2.08334 12.7467 2.08334C13.3334 2.08334 13.8934 2.43 14.1867 2.96334L16.5601 7.31C16.6934 7.55 16.7734 7.84334 16.7734 8.11V36.67H8.72006V8.11Z" stroke="#232B2F" stroke-width="2" stroke-linecap="round" stroke-linejoin="round"/>
<path d="M22.8268 28.3767C22.8268 27.0433 22.1601 25.79 21.0668 25.0433C19.2801 23.8433 16.8001 22.1633 16.8001 22.1633V36.6967C16.8001 36.6967 18.1335 37.6033 19.5735 38.5633C20.2135 38.99 21.0401 39.0433 21.7335 38.67C22.4268 38.2967 22.8535 37.6033 22.8535 36.83V28.3767H22.8268Z" stroke="#232B2F" stroke-width="2" stroke-linecap="round" stroke-linejoin="round"/>
<path d="M2.69332 28.3767C2.69332 27.0433 3.35999 25.79 4.45332 25.0433C6.23999 23.8433 8.71999 22.1633 8.71999 22.1633V36.6967C8.71999 36.6967 7.38666 37.6033 5.94666 38.5633C5.30666 38.99 4.47999 39.0433 3.78666 38.67C3.09332 38.2967 2.66666 37.6033 2.66666 36.83V28.3767H2.69332Z" stroke="#232B2F" stroke-width="2" stroke-linecap="round" stroke-linejoin="round"/>
<path d="M14.6935 36.67H10.8268V37.7633C10.8268 38.67 11.5468 39.39 12.4535 39.39H13.0401C13.9468 39.39 14.6668 38.67 14.6668 37.7633V36.67H14.6935Z" stroke="#232B2F" stroke-width="2" stroke-linecap="round" stroke-linejoin="round"/>
</svg>
