<svg width="37" height="36" viewBox="0 0 37 36" fill="none" xmlns="http://www.w3.org/2000/svg">
<path d="M5.45112 17.7124C5.45112 17.7124 4.32612 17.4374 3.00112 17.1124C2.22612 16.9374 1.62612 16.3124 1.47612 15.5374C1.30112 14.7624 1.60112 13.9624 2.22612 13.4624C6.67612 9.98743 14.3761 3.93743 17.4011 1.56243C18.1511 0.962427 19.2011 0.962427 19.9511 1.56243C22.9761 3.93743 30.6761 9.98743 35.1511 13.4874C35.7761 13.9624 36.0511 14.7624 35.9011 15.5624C35.7261 16.3374 35.1261 16.9374 34.3761 17.1374C33.0511 17.4624 31.9261 17.7374 31.9261 17.7374V32.8374C31.9261 33.3874 31.7011 33.9124 31.3261 34.2874C30.9511 34.6874 30.4261 34.8874 29.8761 34.8874H7.52612C6.97612 34.8874 6.45112 34.6624 6.07612 34.2874C5.70112 33.9124 5.47612 33.3874 5.47612 32.8374V17.7124H5.45112Z" stroke="#232B2F" stroke-width="2" stroke-linecap="round" stroke-linejoin="round"/>
<path d="M22.1261 27.0625C22.1261 25.8625 21.1511 24.9125 19.9761 24.9125H17.3761C16.1761 24.9125 15.2261 25.8875 15.2261 27.0625V34.8875H22.1261V27.0625Z" stroke="#232B2F" stroke-width="2" stroke-linecap="round" stroke-linejoin="round"/>
</svg>
