<svg width="37" height="37" viewBox="0 0 37 37" fill="none" xmlns="http://www.w3.org/2000/svg">
<path d="M5.02434 18.4624C5.02434 18.4624 3.89934 18.1874 2.57434 17.8624C1.79934 17.6874 1.19934 17.0624 1.04934 16.2874C0.874336 15.5124 1.17434 14.7124 1.79934 14.2124C6.24934 10.7374 13.9493 4.68743 16.9743 2.31243C17.7243 1.71243 18.7743 1.71243 19.5243 2.31243C22.5493 4.68743 30.2493 10.7374 34.7243 14.2374C35.3493 14.7124 35.6243 15.5124 35.4743 16.3124C35.2993 17.0874 34.6993 17.6874 33.9493 17.8874C32.6243 18.2124 31.4993 18.4874 31.4993 18.4874V33.5874C31.4993 34.1374 31.2743 34.6624 30.8993 35.0374C30.5243 35.4374 29.9993 35.6374 29.4493 35.6374H7.09934C6.54934 35.6374 6.02434 35.4124 5.64934 35.0374C5.27434 34.6624 5.04934 34.1374 5.04934 33.5874V18.4624H5.02434Z" stroke="#232B2F" stroke-width="2" stroke-linecap="round" stroke-linejoin="round"/>
<path d="M21.6993 27.8125C21.6993 26.6125 20.7243 25.6625 19.5493 25.6625H16.9493C15.7493 25.6625 14.7993 26.6375 14.7993 27.8125V35.6375H21.6993V27.8125Z" stroke="#232B2F" stroke-width="2" stroke-linecap="round" stroke-linejoin="round"/>
</svg>
