<svg width="40" height="41" viewBox="0 0 40 41" fill="none" xmlns="http://www.w3.org/2000/svg">
<g clip-path="url(#clip0_2_417)">
<g clip-path="url(#clip1_2_417)">
<path d="M28.4792 4.87892L3.57568 29.7911L8.98599 35.1995L33.8895 10.2873L28.4792 4.87892Z" stroke="#232B2F" stroke-width="2" stroke-linecap="round" stroke-linejoin="round"/>
<path d="M36.875 7.27501C37.325 6.82501 37.55 6.25001 37.55 5.62501C37.55 5.00001 37.3 4.40001 36.875 3.97501C36.2 3.30001 35.45 2.55001 34.775 1.87501C34.325 1.42501 33.75 1.20001 33.125 1.20001C32.5 1.20001 31.9 1.45001 31.475 1.87501C30.125 3.22501 28.475 4.87501 28.475 4.87501L33.875 10.275C33.875 10.275 35.55 8.60001 36.875 7.27501V7.27501Z" stroke="#232B2F" stroke-width="2" stroke-linecap="round" stroke-linejoin="round"/>
<path d="M1.025 36.225C0.849996 36.65 0.949996 37.15 1.275 37.475C1.6 37.8 2.1 37.9 2.525 37.725C5.175 36.675 8.975 35.175 8.975 35.175L3.575 29.775C3.575 29.775 2.075 33.575 1.025 36.225V36.225Z" stroke="#232B2F" stroke-width="2" stroke-linecap="round" stroke-linejoin="round"/>
<path d="M26.45 6.89999L31.85 12.3" stroke="#232B2F" stroke-width="2" stroke-linejoin="round"/>
</g>
</g>
<defs>
<clipPath id="clip0_2_417">
<rect width="40" height="40" fill="white" transform="translate(0 0.25)"/>
</clipPath>
<clipPath id="clip1_2_417">
<rect width="38.5" height="38.5" fill="white" transform="translate(0 0.25)"/>
</clipPath>
</defs>
</svg>
