<svg width="41" height="38" viewBox="0 0 41 38" fill="none" xmlns="http://www.w3.org/2000/svg">
<g clip-path="url(#clip0_2_450)">
<path d="M11.3767 14.95L10.2267 14.675C9.8767 14.6 9.6017 14.3 9.5017 13.95C9.4267 13.6 9.5517 13.225 9.8517 13C11.9267 11.375 15.5017 8.55002 16.9017 7.45002C17.2517 7.17502 17.7517 7.17502 18.0767 7.45002C19.4767 8.55002 23.0517 11.375 25.1267 13C25.4267 13.225 25.5517 13.6 25.4767 13.95C25.4017 14.3 25.1267 14.6 24.7517 14.675L23.6017 14.95V21.975C23.6017 22.225 23.5017 22.475 23.3267 22.65C23.1517 22.825 22.9017 22.925 22.6517 22.925H12.3267C12.0767 22.925 11.8267 22.825 11.6517 22.65C11.4767 22.475 11.3767 22.225 11.3767 21.975V14.95Z" stroke="#232B2F" stroke-width="2" stroke-linecap="round" stroke-linejoin="round"/>
<path d="M19.1267 19.275C19.1267 18.725 18.6767 18.275 18.1267 18.275H16.9267C16.3767 18.275 15.9267 18.725 15.9267 19.275V22.9H19.1267V19.275V19.275Z" stroke="#232B2F" stroke-width="2" stroke-linecap="round" stroke-linejoin="round"/>
<path d="M28.6018 2.5H6.42679C4.49379 2.5 2.92679 4.067 2.92679 6V28.175C2.92679 30.108 4.49379 31.675 6.42679 31.675H28.6018C30.5348 31.675 32.1018 30.108 32.1018 28.175V6C32.1018 4.067 30.5348 2.5 28.6018 2.5Z" stroke="#232B2F" stroke-width="2" stroke-linecap="round" stroke-linejoin="round"/>
<path d="M8.75168 27.3H26.2517" stroke="#232B2F" stroke-width="2" stroke-linecap="round" stroke-linejoin="round"/>
<path d="M8.75168 31.675V34C8.75168 35.925 10.3267 37.5 12.2517 37.5H34.4267C36.3517 37.5 37.9267 35.925 37.9267 34V11.825C37.9267 9.90001 36.3517 8.32501 34.4267 8.32501H32.1017" stroke="#232B2F" stroke-width="2" stroke-linecap="round" stroke-linejoin="round"/>
</g>
<defs>
<clipPath id="clip0_2_450">
<rect width="40" height="38" fill="white" transform="translate(0.426788)"/>
</clipPath>
</defs>
</svg>
