<svg width="40" height="39" viewBox="0 0 40 39" fill="none" xmlns="http://www.w3.org/2000/svg">
<g clip-path="url(#clip0_2_450)">
<path d="M10.9499 15.7L9.79991 15.425C9.44991 15.35 9.17491 15.05 9.07491 14.7C8.99991 14.35 9.12491 13.975 9.42491 13.75C11.4999 12.125 15.0749 9.30002 16.4749 8.20002C16.8249 7.92502 17.3249 7.92502 17.6499 8.20002C19.0499 9.30002 22.6249 12.125 24.6999 13.75C24.9999 13.975 25.1249 14.35 25.0499 14.7C24.9749 15.05 24.6999 15.35 24.3249 15.425L23.1749 15.7V22.725C23.1749 22.975 23.0749 23.225 22.8999 23.4C22.7249 23.575 22.4749 23.675 22.2249 23.675H11.8999C11.6499 23.675 11.3999 23.575 11.2249 23.4C11.0499 23.225 10.9499 22.975 10.9499 22.725V15.7Z" stroke="#232B2F" stroke-width="2" stroke-linecap="round" stroke-linejoin="round"/>
<path d="M18.6999 20.025C18.6999 19.475 18.2499 19.025 17.6999 19.025H16.4999C15.9499 19.025 15.4999 19.475 15.4999 20.025V23.65H18.6999V20.025V20.025Z" stroke="#232B2F" stroke-width="2" stroke-linecap="round" stroke-linejoin="round"/>
<path d="M28.175 3.25H6C4.067 3.25 2.5 4.817 2.5 6.75V28.925C2.5 30.858 4.067 32.425 6 32.425H28.175C30.108 32.425 31.675 30.858 31.675 28.925V6.75C31.675 4.817 30.108 3.25 28.175 3.25Z" stroke="#232B2F" stroke-width="2" stroke-linecap="round" stroke-linejoin="round"/>
<path d="M8.32489 28.05H25.8249" stroke="#232B2F" stroke-width="2" stroke-linecap="round" stroke-linejoin="round"/>
<path d="M8.32489 32.425V34.75C8.32489 36.675 9.89989 38.25 11.8249 38.25H33.9999C35.9249 38.25 37.4999 36.675 37.4999 34.75V12.575C37.4999 10.65 35.9249 9.07501 33.9999 9.07501H31.6749" stroke="#232B2F" stroke-width="2" stroke-linecap="round" stroke-linejoin="round"/>
</g>
<defs>
<clipPath id="clip0_2_450">
<rect width="40" height="38" fill="white" transform="translate(0 0.75)"/>
</clipPath>
</defs>
</svg>
