<svg width="41" height="40" viewBox="0 0 41 40" fill="none" xmlns="http://www.w3.org/2000/svg">
<g clip-path="url(#clip0_2_417)">
<g clip-path="url(#clip1_2_417)">
<path d="M28.906 4.62892L4.00247 29.5411L9.41278 34.9495L34.3163 10.0373L28.906 4.62892Z" stroke="#232B2F" stroke-width="2" stroke-linecap="round" stroke-linejoin="round"/>
<path d="M37.3018 7.02501C37.7518 6.57501 37.9768 6.00001 37.9768 5.37501C37.9768 4.75001 37.7268 4.15001 37.3018 3.72501C36.6268 3.05001 35.8768 2.30001 35.2018 1.62501C34.7518 1.17501 34.1768 0.950012 33.5518 0.950012C32.9268 0.950012 32.3268 1.20001 31.9018 1.62501C30.5518 2.97501 28.9018 4.62501 28.9018 4.62501L34.3018 10.025C34.3018 10.025 35.9768 8.35001 37.3018 7.02501V7.02501Z" stroke="#232B2F" stroke-width="2" stroke-linecap="round" stroke-linejoin="round"/>
<path d="M1.45178 35.975C1.27678 36.4 1.37678 36.9 1.70178 37.225C2.02678 37.55 2.52678 37.65 2.95178 37.475C5.60178 36.425 9.40178 34.925 9.40178 34.925L4.00178 29.525C4.00178 29.525 2.50178 33.325 1.45178 35.975V35.975Z" stroke="#232B2F" stroke-width="2" stroke-linecap="round" stroke-linejoin="round"/>
<path d="M26.8768 6.64999L32.2768 12.05" stroke="#232B2F" stroke-width="2" stroke-linejoin="round"/>
</g>
</g>
<defs>
<clipPath id="clip0_2_417">
<rect width="40" height="40" fill="white" transform="translate(0.426788)"/>
</clipPath>
<clipPath id="clip1_2_417">
<rect width="38.5" height="38.5" fill="white" transform="translate(0.426788)"/>
</clipPath>
</defs>
</svg>
