<svg width="41" height="40" viewBox="0 0 41 40" fill="none" xmlns="http://www.w3.org/2000/svg">
<path d="M10.0268 10.75H5.42679V29.6H10.0268V10.75Z" stroke="#232B2F" stroke-width="2" stroke-linecap="round" stroke-linejoin="round"/>
<path d="M10.0268 8.42498C10.0268 7.49998 9.27679 6.77498 8.37679 6.77498H7.07679C6.15179 6.77498 5.42679 7.52498 5.42679 8.42498V10.75H10.0268V8.42498Z" stroke="#232B2F" stroke-width="2" stroke-linecap="round" stroke-linejoin="round"/>
<path d="M6.95179 33.15C7.07679 33.45 7.37679 33.65 7.70179 33.65C8.02679 33.65 8.32679 33.45 8.45179 33.15C9.12679 31.6 10.0018 29.575 10.0018 29.575H5.42679C5.42679 29.575 6.30179 31.6 6.97679 33.15H6.95179Z" stroke="#232B2F" stroke-width="2" stroke-linecap="round" stroke-linejoin="round"/>
<path d="M5.42679 12.7H10.0268" stroke="#232B2F" stroke-width="2" stroke-linecap="round" stroke-linejoin="round"/>
<path d="M7.7269 33.65V33.975C7.7269 34.9 8.1019 35.8 8.7519 36.45C9.4019 37.1 10.3019 37.475 11.2269 37.475H30.4769C31.4019 37.475 32.3019 37.1 32.9519 36.45C33.6019 35.8 33.9769 34.9 33.9769 33.975V8.75L28.1269 2.5H11.2269C9.3019 2.5 7.7269 4.075 7.7269 6V6.775" stroke="#232B2F" stroke-width="2" stroke-linecap="round" stroke-linejoin="round"/>
<path d="M28.1267 2.5V6.95C28.1267 7.425 28.3267 7.9 28.6517 8.25C28.9767 8.6 29.4517 8.775 29.9517 8.775H33.9517" stroke="#232B2F" stroke-width="2" stroke-linecap="round" stroke-linejoin="round"/>
<path d="M13.5518 12.8H28.1268" stroke="#232B2F" stroke-width="2" stroke-linecap="round" stroke-linejoin="round"/>
<path d="M13.5518 17.6H28.1268" stroke="#232B2F" stroke-width="2" stroke-linecap="round" stroke-linejoin="round"/>
<path d="M13.5518 22.375H28.1268" stroke="#232B2F" stroke-width="2" stroke-linecap="round" stroke-linejoin="round"/>
<path d="M13.5518 27.175H28.1268" stroke="#232B2F" stroke-width="2" stroke-linecap="round" stroke-linejoin="round"/>
</svg>
