<svg width="40" height="41" viewBox="0 0 40 41" fill="none" xmlns="http://www.w3.org/2000/svg">
<g clip-path="url(#clip0_2_416)">
<path d="M17.05 26.125H15.8C14.875 26.125 9.22505 28.125 7.85005 29.25C6.45005 30.375 5.67505 31.9 5.67505 33.475V38.25" stroke="#232B2F" stroke-width="2" stroke-miterlimit="5" stroke-linecap="round"/>
<path d="M34.325 38.25V33.475C34.325 31.9 33.55 30.375 32.15 29.25C30.75 28.125 25.125 26.125 24.2 26.125H22.95" stroke="#232B2F" stroke-width="2" stroke-miterlimit="5" stroke-linecap="round"/>
<path d="M27.375 15.5C26.825 19.4 23.775 22.4 20.075 22.4C16.375 22.4 13.575 19.65 12.85 15.975" stroke="#232B2F" stroke-width="2" stroke-miterlimit="5" stroke-linecap="round"/>
<path d="M24.3001 4.675C24.3001 4.675 21.7251 2.025 16.4251 3.925C13.7501 4.875 12.2001 7.6 12.0001 9.925C11.8251 12 12.8751 15.95 12.8751 15.95" stroke="#232B2F" stroke-width="2" stroke-miterlimit="5" stroke-linecap="round"/>
<path d="M22.7501 9.92499C22.7501 9.92499 21.8001 12.725 16.6251 12.3C14.1251 12.1 12.9001 15.95 12.9001 15.95" stroke="#232B2F" stroke-width="2" stroke-miterlimit="5" stroke-linecap="round"/>
<path d="M22.7501 9.92499C22.7501 9.92499 23.4001 12.55 25.0501 12.7C26.7001 12.85 27.3751 15.5 27.3751 15.5" stroke="#232B2F" stroke-width="2" stroke-miterlimit="5" stroke-linecap="round"/>
<path d="M24.3001 4.67499C24.3001 4.67499 26.2751 4.94999 27.3751 8.07499C28.6251 11.625 27.3751 15.475 27.3751 15.475" stroke="#232B2F" stroke-width="2" stroke-miterlimit="5" stroke-linecap="round"/>
<path d="M17.05 21.675V26.15C19.025 28.15 20.975 28.1 22.95 26.15V21.775" stroke="#232B2F" stroke-width="2" stroke-miterlimit="5" stroke-linecap="round"/>
<path d="M34.325 38.25H5.67505" stroke="#232B2F" stroke-width="2" stroke-linecap="round" stroke-linejoin="round"/>
</g>
<defs>
<clipPath id="clip0_2_416">
<rect width="40" height="40" fill="white" transform="translate(0 0.75)"/>
</clipPath>
</defs>
</svg>
