<svg width="40" height="41" viewBox="0 0 40 41" fill="none" xmlns="http://www.w3.org/2000/svg">
<g clip-path="url(#clip0_2_431)">
<path d="M9.6 11.5H5V30.35H9.6V11.5Z" stroke="#232B2F" stroke-width="2" stroke-linecap="round" stroke-linejoin="round"/>
<path d="M9.6 9.17496C9.6 8.24996 8.85 7.52496 7.95 7.52496H6.65C5.725 7.52496 5 8.27496 5 9.17496V11.5H9.6V9.17496Z" stroke="#232B2F" stroke-width="2" stroke-linecap="round" stroke-linejoin="round"/>
<path d="M6.525 33.9C6.65 34.2 6.95 34.4 7.275 34.4C7.6 34.4 7.9 34.2 8.025 33.9C8.7 32.35 9.575 30.325 9.575 30.325H5C5 30.325 5.875 32.35 6.55 33.9H6.525Z" stroke="#232B2F" stroke-width="2" stroke-linecap="round" stroke-linejoin="round"/>
<path d="M5 13.45H9.6" stroke="#232B2F" stroke-width="2" stroke-linecap="round" stroke-linejoin="round"/>
<path d="M7.30011 34.4V34.725C7.30011 35.65 7.67511 36.55 8.32511 37.2C8.97511 37.85 9.87511 38.225 10.8001 38.225H30.0501C30.9751 38.225 31.8751 37.85 32.5251 37.2C33.1751 36.55 33.5501 35.65 33.5501 34.725V9.5L27.7001 3.25H10.8001C8.87511 3.25 7.30011 4.825 7.30011 6.75V7.525" stroke="#232B2F" stroke-width="2" stroke-linecap="round" stroke-linejoin="round"/>
<path d="M27.6999 3.25V7.7C27.6999 8.175 27.8999 8.65 28.2249 9C28.5499 9.35 29.0249 9.525 29.5249 9.525H33.5249" stroke="#232B2F" stroke-width="2" stroke-linecap="round" stroke-linejoin="round"/>
<path d="M13.125 13.55H27.7" stroke="#232B2F" stroke-width="2" stroke-linecap="round" stroke-linejoin="round"/>
<path d="M13.125 18.35H27.7" stroke="#232B2F" stroke-width="2" stroke-linecap="round" stroke-linejoin="round"/>
<path d="M13.125 23.125H27.7" stroke="#232B2F" stroke-width="2" stroke-linecap="round" stroke-linejoin="round"/>
<path d="M13.125 27.925H27.7" stroke="#232B2F" stroke-width="2" stroke-linecap="round" stroke-linejoin="round"/>
</g>
<defs>
<clipPath id="clip0_2_431">
<rect width="40" height="40" fill="white" transform="translate(0 0.75)"/>
</clipPath>
</defs>
</svg>
