<svg width="41" height="40" viewBox="0 0 41 40" fill="none" xmlns="http://www.w3.org/2000/svg">
<g clip-path="url(#clip0_2_457)">
<path d="M20.4268 14.85C23.2768 14.85 25.5768 17.15 25.5768 20C25.5768 22.85 23.2768 25.15 20.4268 25.15C17.5768 25.15 15.2768 22.85 15.2768 20C15.2768 17.15 17.5768 14.85 20.4268 14.85V14.85ZM23.0768 3.92498C22.8768 3.12498 22.2018 2.57498 21.3768 2.52498C20.7518 2.49998 20.1268 2.49998 19.5018 2.52498C18.7018 2.57498 18.0018 3.14998 17.8018 3.92498C17.4018 5.47498 16.7768 7.92498 16.7768 7.92498C15.9768 8.17498 15.2268 8.47498 14.5018 8.87498L10.9518 6.77498C10.2518 6.34998 9.37679 6.44998 8.75179 6.97498C8.27679 7.39998 7.85179 7.84998 7.42679 8.32498C6.87679 8.92498 6.80179 9.82497 7.22679 10.5C8.05179 11.9 9.32679 14.05 9.32679 14.05C8.92679 14.775 8.62679 15.55 8.37679 16.325C8.37679 16.325 5.92679 16.95 4.37679 17.35C3.57679 17.55 3.02679 18.225 2.97679 19.05C2.95179 19.675 2.95179 20.3 2.97679 20.95C3.02679 21.75 3.60179 22.45 4.37679 22.65C5.92679 23.05 8.37679 23.675 8.37679 23.675C8.62679 24.475 8.92679 25.225 9.32679 25.95C9.32679 25.95 8.02679 28.125 7.22679 29.5C6.80179 30.2 6.90179 31.075 7.42679 31.7C7.85179 32.175 8.30179 32.6 8.77679 33.025C9.37679 33.55 10.2768 33.65 10.9518 33.225C12.3518 32.4 14.5018 31.125 14.5018 31.125C15.2268 31.525 16.0018 31.825 16.7768 32.075C16.7768 32.075 17.4018 34.525 17.8018 36.075C18.0018 36.875 18.6768 37.425 19.5018 37.475C20.1268 37.5 20.7518 37.5 21.3768 37.475C22.1768 37.425 22.8768 36.85 23.0768 36.075C23.4768 34.525 24.1018 32.075 24.1018 32.075C24.9018 31.825 25.6518 31.525 26.3768 31.125C26.3768 31.125 28.5518 32.425 29.9268 33.225C30.6268 33.65 31.5018 33.55 32.1268 33.025C32.6018 32.6 33.0268 32.15 33.4518 31.675C34.0018 31.075 34.0768 30.175 33.6518 29.5C32.8268 28.1 31.5518 25.95 31.5518 25.95C31.9518 25.225 32.2518 24.45 32.5018 23.675C32.5018 23.675 34.9518 23.05 36.5018 22.65C37.3018 22.45 37.8518 21.775 37.9018 20.95C37.9268 20.325 37.9268 19.7 37.9018 19.075C37.8518 18.275 37.2768 17.575 36.5018 17.375C34.9518 16.975 32.5018 16.35 32.5018 16.35C32.2518 15.55 31.9518 14.8 31.5518 14.075L33.6518 10.525C34.0768 9.82498 33.9768 8.94998 33.4518 8.32498C33.0268 7.84998 32.5768 7.42498 32.1018 6.99998C31.5018 6.44998 30.6018 6.37498 29.9268 6.79998C28.5268 7.62498 26.3768 8.89998 26.3768 8.89998C25.6518 8.49998 24.8768 8.19998 24.1018 7.94998L23.0768 3.94998V3.92498Z" stroke="#232B2F" stroke-width="2" stroke-linecap="round" stroke-linejoin="round"/>
</g>
<defs>
<clipPath id="clip0_2_457">
<rect width="40" height="40" fill="white" transform="translate(0.426788)"/>
</clipPath>
</defs>
</svg>
