<svg width="40" height="41" viewBox="0 0 40 41" fill="none" xmlns="http://www.w3.org/2000/svg">
<g clip-path="url(#clip0_2_457)">
<path d="M20 15.6C22.85 15.6 25.15 17.9 25.15 20.75C25.15 23.6 22.85 25.9 20 25.9C17.15 25.9 14.85 23.6 14.85 20.75C14.85 17.9 17.15 15.6 20 15.6V15.6ZM22.65 4.67498C22.45 3.87498 21.775 3.32498 20.95 3.27498C20.325 3.24998 19.7 3.24998 19.075 3.27498C18.275 3.32498 17.575 3.89998 17.375 4.67498C16.975 6.22498 16.35 8.67498 16.35 8.67498C15.55 8.92498 14.8 9.22498 14.075 9.62498L10.525 7.52498C9.825 7.09998 8.95 7.19998 8.325 7.72498C7.85 8.14998 7.425 8.59998 7 9.07498C6.45 9.67498 6.375 10.575 6.8 11.25C7.625 12.65 8.9 14.8 8.9 14.8C8.5 15.525 8.2 16.3 7.95 17.075C7.95 17.075 5.5 17.7 3.95 18.1C3.15 18.3 2.6 18.975 2.55 19.8C2.525 20.425 2.525 21.05 2.55 21.7C2.6 22.5 3.175 23.2 3.95 23.4C5.5 23.8 7.95 24.425 7.95 24.425C8.2 25.225 8.5 25.975 8.9 26.7C8.9 26.7 7.6 28.875 6.8 30.25C6.375 30.95 6.475 31.825 7 32.45C7.425 32.925 7.875 33.35 8.35 33.775C8.95 34.3 9.85 34.4 10.525 33.975C11.925 33.15 14.075 31.875 14.075 31.875C14.8 32.275 15.575 32.575 16.35 32.825C16.35 32.825 16.975 35.275 17.375 36.825C17.575 37.625 18.25 38.175 19.075 38.225C19.7 38.25 20.325 38.25 20.95 38.225C21.75 38.175 22.45 37.6 22.65 36.825C23.05 35.275 23.675 32.825 23.675 32.825C24.475 32.575 25.225 32.275 25.95 31.875C25.95 31.875 28.125 33.175 29.5 33.975C30.2 34.4 31.075 34.3 31.7 33.775C32.175 33.35 32.6 32.9 33.025 32.425C33.575 31.825 33.65 30.925 33.225 30.25C32.4 28.85 31.125 26.7 31.125 26.7C31.525 25.975 31.825 25.2 32.075 24.425C32.075 24.425 34.525 23.8 36.075 23.4C36.875 23.2 37.425 22.525 37.475 21.7C37.5 21.075 37.5 20.45 37.475 19.825C37.425 19.025 36.85 18.325 36.075 18.125C34.525 17.725 32.075 17.1 32.075 17.1C31.825 16.3 31.525 15.55 31.125 14.825L33.225 11.275C33.65 10.575 33.55 9.69998 33.025 9.07498C32.6 8.59998 32.15 8.17498 31.675 7.74998C31.075 7.19998 30.175 7.12498 29.5 7.54998C28.1 8.37498 25.95 9.64998 25.95 9.64998C25.225 9.24998 24.45 8.94998 23.675 8.69998L22.65 4.69998V4.67498Z" stroke="#232B2F" stroke-width="2" stroke-linecap="round" stroke-linejoin="round"/>
</g>
<defs>
<clipPath id="clip0_2_457">
<rect width="40" height="40" fill="white" transform="translate(0 0.75)"/>
</clipPath>
</defs>
</svg>
